Coordinates
version=1
nRows=12
nColumns=24
inDegrees=yes

Units are S.I. units (second, meters, Newtons, ...)
Angles are in degrees.

endheader
time	pelvis_tilt	pelvis_list	pelvis_rotation	pelvis_tx	pelvis_ty	pelvis_tz	hip_flexion_r	hip_adduction_r	hip_rotation_r	knee_angle_r	ankle_angle_r	subtalar_angle_r	mtp_angle_r	hip_flexion_l	hip_adduction_l	hip_rotation_l	knee_angle_l	ankle_angle_l	subtalar_angle_l	mtp_angle_l	lumbar_extension	lumbar_bending	lumbar_rotation
      0.78333333	     -0.13613704	     -2.85197692	     -1.06436508	     -0.48943659	      1.07130839	      0.36641102	      9.56039565	      7.46444587	     -5.10112140	    -12.40742481	      1.04177070	     -7.37800582	      1.30072949	     14.37567951	     -2.97711157	     -1.41901232	    -67.10804060	      2.90396213	     -8.43402996	      6.56373907	      4.26508916	      7.18485617	     -2.09737615
      0.78750000	     -0.09766344	     -2.75950663	     -1.06917113	     -0.48442940	      1.07201820	      0.36656508	      9.17387501	      7.39071357	     -4.97863871	    -12.31798409	      1.16372977	     -7.44820753	      1.29582186	     14.92461395	     -2.83181855	     -1.16765044	    -67.04746025	      3.37468119	     -8.70601978	      6.51845236	      4.19230116	      7.06184145	     -2.00580010
      0.79166667	     -0.06549951	     -2.68428162	     -1.05831749	     -0.47946813	      1.07269182	      0.36674814	      8.78727297	      7.33946021	     -4.80406949	    -12.20594980	      1.24843458	     -7.46976568	      1.29364403	     15.47716770	     -2.70509045	     -0.89107165	    -66.93225151	      3.69070030	     -8.91874179	      6.49269838	      4.11910180	      6.92916101	     -1.93693411
      0.79583333	     -0.03418621	     -2.59461366	     -1.08190422	     -0.47440015	      1.07337355	      0.36693461	      8.39827646	      7.27230066	     -4.69162820	    -12.09602235	      1.39436674	     -7.55716836	      1.28913681	     15.99370618	     -2.56334014	     -0.66475363	    -66.73778301	      4.17009429	     -9.26505110	      6.45236522	      4.04861976	      6.79968074	     -1.84231998
      0.80000000	      0.01040382	     -2.49626722	     -1.14027179	     -0.46942225	      1.07404590	      0.36706096	      8.01052202	      7.18858118	     -4.56317370	    -12.02111675	      1.53470394	     -7.66060822	      1.28105593	     16.48209224	     -2.40218257	     -0.45761133	    -66.48933032	      4.58127829	     -9.63569426	      6.38580731	      3.96043718	      6.73038105	     -1.72485586
      0.80416667	      0.04445430	     -2.43112687	     -1.15353179	     -0.46441980	      1.07467825	      0.36726053	      7.60966070	      7.15186848	     -4.38770808	    -11.88265148	      1.63274750	     -7.70112494	      1.27613786	     16.97909137	     -2.28102886	     -0.20454027	    -66.19072171	      4.85867512	     -9.92151277	      6.34102785	      3.88766785	      6.60780262	     -1.63147339
      0.80833333	      0.08754439	     -2.35537535	     -1.19140270	     -0.45944108	      1.07530173	      0.36742285	      7.20692426	      7.09610517	     -4.22740733	    -11.76928845	      1.75874973	     -7.77308761	      1.27015665	     17.44668157	     -2.14386571	      0.02724394	    -65.83515797	      5.18566433	    -10.29946008	      6.29045602	      3.81191091	      6.49994367	     -1.53060051
      0.81250000	      0.12744077	     -2.28235362	     -1.24139304	     -0.45446732	      1.07589432	      0.36757889	      6.80471244	      7.04395653	     -4.05659477	    -11.64855776	      1.88596359	     -7.85084201	      1.26307250	     17.89965253	     -2.00728518	      0.24973227	    -65.42083873	      5.47266492	    -10.71774727	      6.23303063	      3.73504224	      6.40517172	     -1.42279938
      0.81666667	      0.18312990	     -2.18902261	     -1.36291450	     -0.44952856	      1.07650750	      0.36772225	      6.40392292	      6.96278843	     -3.89839333	    -11.57096713	      2.02963198	     -7.98984437	      1.24543964	     18.30477528	     -1.85681234	      0.39181835	    -64.92882023	      5.67829470	    -11.35439223	      6.10607710	      3.58762251	      6.36164168	     -1.24024416
      0.82083333	      0.22448093	     -2.14742163	     -1.37626396	     -0.44453461	      1.07704359	      0.36791055	      5.97690102	      6.94918541	     -3.69749243	    -11.39783716	      2.11586726	     -8.01233963	      1.23701529	     18.72983001	     -1.75288884	      0.65601477	    -64.41032892	      5.84072888	    -11.71332379	      6.03976096	      3.54375667	      6.25109799	     -1.13090651
      0.82500000	      0.31402276	     -2.07098083	     -1.49900005	     -0.43966193	      1.07764653	      0.36807482	      5.52849576	      6.88669048	     -3.47780441	    -11.28502204	      2.23313268	     -8.13707437	      1.19753598	     19.07073271	     -1.62227296	      0.79414152	    -63.80042985	      5.79001005	    -12.59001847	      5.77440518	      3.29391935	      6.22324323	     -0.84554265
      0.82916667	      0.32978256	     -2.00805368	     -1.56868998	     -0.43463480	      1.07811498	      0.36817968	      5.14264127	      6.83544629	     -3.35024923	    -11.15108210	      2.35725195	     -8.20979985	      1.18001446	     19.47108842	     -1.49288521	      1.00269155	    -63.15989972	      6.04929936	    -13.03710387	      5.66018701	      3.28294051	      6.14227947	     -0.74138243
